<?xml version="1.0" standalone="no"?>
<!DOCTYPE svg PUBLIC "-//W3C//DTD SVG 20010904//EN"
 "http://www.w3.org/TR/2001/REC-SVG-20010904/DTD/svg10.dtd">
<svg version="1.0" xmlns="http://www.w3.org/2000/svg"
 width="701.000000pt" height="588.000000pt" viewBox="0 0 701.000000 588.000000"
 preserveAspectRatio="xMidYMid meet">

<g transform="translate(0.000000,588.000000) scale(0.100000,-0.100000)"
fill="#000000" stroke="none">
<path d="M1555 5873 l-341 -3 -33 -148 c-96 -434 -215 -819 -504 -1637 -254
-719 -333 -980 -344 -1136 -7 -99 5 -144 49 -194 69 -79 140 -88 913 -111 291
-8 532 -17 534 -20 2 -2 -53 -187 -123 -410 -70 -224 -125 -408 -123 -411 13
-13 291 -24 487 -20 187 4 238 8 303 26 153 41 216 93 257 214 42 125 40 126
99 -19 29 -71 61 -148 71 -171 21 -47 22 -45 -35 -63 -22 -7 -80 -27 -130 -45
-551 -203 -1365 -119 -1913 196 -331 190 -543 445 -629 754 -26 94 -28 112
-28 300 0 193 1 205 33 330 85 338 265 672 583 1087 31 40 59 88 62 106 4 17
5 32 3 32 -7 0 -180 -220 -249 -316 -260 -362 -424 -724 -478 -1054 -17 -107
-15 -318 5 -423 74 -388 344 -713 776 -930 312 -157 634 -241 1032 -269 263
-18 579 12 785 76 143 44 236 67 244 59 4 -4 127 -303 274 -663 147 -360 278
-675 291 -700 42 -78 123 -177 174 -215 76 -56 141 -74 303 -85 80 -5 700 -10
1424 -10 1212 0 1282 1 1287 18 46 151 386 1312 386 1316 0 3 -555 6 -1232 6
-1313 0 -1278 -1 -1374 48 -79 40 -164 143 -234 282 -29 57 -200 430 -200 435
0 1 59 37 130 79 484 288 909 725 1146 1181 166 319 246 624 246 940 1 401
-122 709 -386 970 -126 125 -235 202 -400 281 -284 136 -593 201 -1016 211
-453 11 -904 -46 -1474 -186 l-230 -56 -42 -135 c-24 -74 -43 -142 -43 -151
-1 -11 38 -34 120 -73 l121 -57 126 54 c864 372 1603 434 2150 182 194 -90
416 -279 530 -450 104 -156 181 -343 219 -532 28 -136 25 -472 -5 -609 -45
-208 -125 -396 -243 -574 -96 -146 -478 -515 -735 -711 -117 -89 -283 -203
-288 -198 -14 14 -536 1175 -532 1183 2 6 122 71 265 144 l261 133 -40 59
c-22 32 -40 63 -40 68 0 5 205 204 455 443 250 238 455 434 455 436 0 2 -105
3 -233 3 l-233 0 -329 -309 -330 -308 -53 45 c-31 26 -56 41 -60 36 -110 -161
-247 -353 -250 -350 -2 3 37 137 87 298 50 161 91 296 91 299 0 11 -663 19
-766 10 -117 -10 -161 -28 -217 -85 -75 -78 -101 -141 -172 -426 -36 -146 -71
-280 -76 -298 l-11 -34 -362 4 c-320 3 -365 5 -393 21 -96 51 -92 186 12 507
74 228 535 1710 535 1721 0 5 -12 8 -27 7 -16 -2 -181 -4 -368 -5z"/>
</g>
</svg>
